<svg xmlns="http://www.w3.org/2000/svg" width="19.785" height="22.472" viewBox="0 0 19.785 22.472">
  <path id="Icon_open-calculator" data-name="Icon open-calculator" d="M.242,0A.226.226,0,0,0,0,.242V21.231a.241.241,0,0,0,.242.242h18.3a.241.241,0,0,0,.242-.242V.242A.226.226,0,0,0,18.543,0H.242ZM2.687,2.687H16.124V8.062H2.687Zm0,8.062H5.375v2.687H2.687Zm5.375,0H10.75v2.687H8.062Zm5.375,0h2.687v8.062H13.437ZM2.687,16.124H5.375v2.687H2.687Zm5.375,0H10.75v2.687H8.062Z" transform="translate(0.5 0.5)" fill="#333" stroke="#fff" stroke-width="1"/>
</svg>
