<svg width="18" height="18" viewBox="0 0 18 18" fill="none" xmlns="http://www.w3.org/2000/svg">
<path d="M15 8.24925H16.5C16.5 4.40175 13.5953 1.5 9.74251 1.5V3C12.789 3 15 5.20725 15 8.24925Z" fill="white"/>
<path d="M9.75 5.99969C11.3272 5.99969 12 6.67244 12 8.24969H13.5C13.5 5.83094 12.1687 4.49969 9.75 4.49969V5.99969ZM12.3165 10.0819C12.1724 9.95096 11.983 9.8811 11.7884 9.88711C11.5937 9.89313 11.409 9.97455 11.2732 10.1142L9.4785 11.9599C9.0465 11.8774 8.178 11.6067 7.284 10.7149C6.39 9.82019 6.11925 8.94944 6.039 8.52044L7.88325 6.72494C8.02306 6.58929 8.1046 6.40456 8.11062 6.20985C8.11664 6.01513 8.04666 5.82572 7.9155 5.68169L5.14425 2.63444C5.01303 2.48996 4.83066 2.40232 4.63586 2.39014C4.44107 2.37795 4.2492 2.44218 4.101 2.56919L2.4735 3.96494C2.34383 4.09508 2.26644 4.26828 2.256 4.45169C2.24475 4.63919 2.03025 9.08069 5.47425 12.5262C8.47875 15.5299 12.2422 15.7497 13.2787 15.7497C13.4302 15.7497 13.5232 15.7452 13.548 15.7437C13.7314 15.7334 13.9045 15.6557 14.034 15.5254L15.429 13.8972C15.5561 13.7491 15.6205 13.5573 15.6084 13.3625C15.5964 13.1677 15.5089 12.9853 15.3645 12.8539L12.3165 10.0819Z" fill="white"/>
</svg>
