<svg width="60" height="60" viewBox="0 0 60 60" fill="none" xmlns="http://www.w3.org/2000/svg">
<g clip-path="url(#clip0_2_411)">
<g clip-path="url(#clip1_2_411)">
<g clip-path="url(#clip2_2_411)">
<g clip-path="url(#clip3_2_411)">
<path d="M30.472 34.0221C39.7596 34.0221 47.2887 26.493 47.2887 17.2054C47.2887 7.91778 39.7596 0.388672 30.472 0.388672C21.1844 0.388672 13.6553 7.91778 13.6553 17.2054C13.6553 26.493 21.1844 34.0221 30.472 34.0221Z" fill="#4D9C78"/>
<path d="M4.60568 51.0732L11.7506 59.4864C11.8873 59.6474 12.0574 59.7767 12.2491 59.8654C12.4408 59.9541 12.6495 60 12.8607 60C13.0719 60 13.2806 59.9541 13.4723 59.8654C13.6639 59.7767 13.8341 59.6474 13.9708 59.4864L21.1166 51.0732C21.2963 50.8613 21.4117 50.6024 21.4491 50.3271C21.4865 50.0518 21.4444 49.7715 21.3277 49.5193C21.211 49.2671 21.0246 49.0536 20.7905 48.9039C20.5564 48.7542 20.2844 48.6746 20.0065 48.6745L17.6201 48.6745L17.6201 29.6367C19.7301 31.7784 22.3584 33.3376 25.2494 34.1628V42.3825H22.8631C22.5852 42.3826 22.3132 42.4622 22.0791 42.6119C21.845 42.7616 21.6586 42.9751 21.5419 43.2273C21.4252 43.4795 21.3831 43.7597 21.4205 44.0351C21.4579 44.3104 21.5732 44.5693 21.753 44.7812L28.889 53.1944C29.0258 53.3554 29.1959 53.4847 29.3876 53.5734C29.5793 53.662 29.7879 53.708 29.9991 53.708C30.2103 53.708 30.419 53.662 30.6107 53.5734C30.8024 53.4847 30.9725 53.3554 31.1092 53.1944L38.2542 44.7794C38.4342 44.5675 38.5498 44.3086 38.5873 44.0331C38.6249 43.7576 38.5828 43.4772 38.4661 43.2248C38.3493 42.9725 38.1628 42.7588 37.9286 42.6091C37.6943 42.4594 37.4221 42.3798 37.1441 42.3798H34.7577V34.1602C37.6487 33.3349 40.2769 31.7757 42.387 29.634V36.094H40.0006C39.7226 36.094 39.4504 36.1735 39.2161 36.3233C38.9819 36.473 38.7953 36.6867 38.6786 36.939C38.5619 37.1913 38.5198 37.4718 38.5574 37.7473C38.5949 38.0227 38.7105 38.2817 38.8905 38.4936L46.0354 46.9086C46.1722 47.0697 46.3423 47.1991 46.5341 47.2879C46.7259 47.3767 46.9347 47.4227 47.146 47.4227C47.3573 47.4227 47.5661 47.3767 47.7578 47.2879C47.9496 47.1991 48.1198 47.0697 48.2565 46.9086L55.3944 38.4927C55.5741 38.2808 55.6895 38.0219 55.7269 37.7466C55.7643 37.4713 55.7221 37.191 55.6054 36.9388C55.4887 36.6866 55.3023 36.4731 55.0682 36.3234C54.8341 36.1737 54.5621 36.0941 54.2843 36.094H51.8979L51.8979 25.9785C51.8972 25.4541 51.6883 24.9513 51.317 24.5809C50.9457 24.2105 50.4426 24.0027 49.9181 24.0031H46.1088C47.1919 21.3588 47.6076 18.4886 47.3191 15.6456C47.0306 12.8027 46.0468 10.0745 44.4546 7.70163C42.8623 5.32881 40.7105 3.38435 38.1891 2.03979C35.6676 0.695244 32.854 -0.00806046 29.9965 -0.00806046C27.1389 -0.00806046 24.3253 0.695244 21.8039 2.03979C19.2824 3.38435 17.1306 5.32881 15.5384 7.70163C13.9462 10.0745 12.9624 12.8027 12.6739 15.6456C12.3854 18.4886 12.8011 21.3588 13.8842 24.0031H10.0784C9.55478 24.0038 9.05284 24.2122 8.68268 24.5825C8.31252 24.9529 8.10437 25.4549 8.1039 25.9785L8.1039 48.6718H5.71755C5.43905 48.6712 5.1662 48.7504 4.93135 48.9001C4.6965 49.0498 4.50949 49.2637 4.39247 49.5164C4.27546 49.7691 4.23335 50.0501 4.27114 50.326C4.30893 50.602 4.42503 50.8613 4.60568 51.0732ZM33.8164 44.2597H36.2399L29.9991 51.6035L23.7584 44.2536H26.1827C26.4314 44.2536 26.67 44.1548 26.8458 43.9789C27.0217 43.803 27.1205 43.5645 27.1205 43.3158V34.5764C29.0269 34.8958 30.9731 34.8958 32.8796 34.5764V43.3202C32.8796 43.5689 32.9784 43.8074 33.1542 43.9833C33.3301 44.1592 33.5686 44.258 33.8173 44.258L33.8164 44.2597ZM49.9172 25.8786C49.9437 25.8793 49.969 25.8901 49.9877 25.9089C50.0065 25.9276 50.0173 25.9529 50.018 25.9794L50.018 37.0273C50.018 37.276 50.1168 37.5145 50.2926 37.6904C50.4685 37.8663 50.707 37.9651 50.9557 37.9651H53.3792L47.1385 45.315L40.8942 37.9686H43.3212C43.5699 37.9686 43.8084 37.8698 43.9843 37.6939C44.1601 37.5181 44.2589 37.2796 44.2589 37.0309V27.3864C44.6005 26.8997 44.9171 26.3959 45.2073 25.8769L49.9172 25.8786ZM29.9991 1.87457C33.0718 1.87387 36.0758 2.78439 38.631 4.49099C41.1862 6.19759 43.1779 8.62361 44.3543 11.4622C45.5306 14.3008 45.8388 17.4246 45.2398 20.4383C44.6407 23.4521 43.1614 26.2205 40.9889 28.3935C38.8164 30.5665 36.0484 32.0464 33.0347 32.6461C30.0211 33.2458 26.8973 32.9384 24.0584 31.7627C21.2196 30.587 18.7931 28.5958 17.0859 26.041C15.3787 23.4861 14.4675 20.4824 14.4675 17.4097C14.4729 13.2918 16.1109 9.34404 19.0223 6.43189C21.9338 3.51975 25.8812 1.88088 29.9991 1.87457ZM9.0443 50.5429C9.29301 50.5429 9.53153 50.4441 9.70739 50.2683C9.88325 50.0924 9.98205 49.8539 9.98205 49.6052L9.98205 25.9785C9.98249 25.9521 9.99313 25.9268 10.0117 25.9081C10.0304 25.8893 10.0555 25.8784 10.0819 25.8777H14.7928C15.083 26.3965 15.3995 26.9 15.7411 27.3864L15.7411 49.6087C15.7421 49.8565 15.841 50.0938 16.0164 50.2689C16.1918 50.4439 16.4293 50.5425 16.6771 50.5429H19.1015L12.8607 57.8964L6.61994 50.5429H9.0443Z" fill="#333333"/>
<path d="M24.7624 15.2216C25.8372 15.2216 26.8679 14.7947 27.6279 14.0347C28.3879 13.2747 28.8148 12.244 28.8148 11.1692C28.8148 10.0945 28.3879 9.06372 27.6279 8.30375C26.8679 7.54378 25.8372 7.11683 24.7624 7.11683C23.6877 7.11683 22.6569 7.54378 21.8969 8.30375C21.137 9.06372 20.71 10.0945 20.71 11.1692C20.71 12.244 21.137 13.2747 21.8969 14.0347C22.6569 14.7947 23.6877 15.2216 24.7624 15.2216ZM23.2219 9.63046C23.4236 9.42759 23.6635 9.26673 23.9278 9.1572C24.1921 9.04766 24.4755 8.99163 24.7615 8.99233C25.339 8.99233 25.8928 9.22173 26.3011 9.63005C26.7095 10.0384 26.9389 10.5922 26.9389 11.1697C26.9389 11.7471 26.7095 12.3009 26.3011 12.7093C25.8928 13.1176 25.339 13.347 24.7615 13.347C24.3319 13.346 23.9122 13.218 23.5551 12.979C23.1981 12.74 22.9197 12.4008 22.755 12.004C22.5904 11.6071 22.5467 11.1705 22.6296 10.7489C22.7126 10.3274 22.9183 9.93977 23.221 9.63488L23.2219 9.63046ZM35.189 19.5983C34.3876 19.5987 33.6043 19.8367 32.9381 20.2823C32.2719 20.7278 31.7528 21.3608 31.4464 22.1014C31.14 22.8419 31.0601 23.6567 31.2167 24.4426C31.3733 25.2286 31.7594 25.9505 32.3263 26.517C32.7017 26.8942 33.1481 27.1933 33.6398 27.3969C34.1315 27.6005 34.6586 27.7045 35.1908 27.7031C36.2655 27.7031 37.2963 27.2762 38.0562 26.5162C38.8162 25.7562 39.2432 24.7255 39.2432 23.6507C39.2432 22.576 38.8162 21.5452 38.0562 20.7853C37.2963 20.0253 36.2655 19.5983 35.1908 19.5983H35.189ZM37.3686 23.6498C37.3681 24.2271 37.1386 24.7806 36.7305 25.1889C36.3224 25.5972 35.7689 25.8269 35.1917 25.8276C34.6142 25.8276 34.0604 25.5982 33.6521 25.1899C33.2437 24.7816 33.0143 24.2277 33.0143 23.6503C33.0143 23.0728 33.2437 22.519 33.6521 22.1107C34.0604 21.7024 34.6142 21.473 35.1917 21.473C35.7688 21.4737 36.3221 21.7032 36.7302 22.1113C37.1383 22.5194 37.3678 23.0727 37.3686 23.6498ZM23.2838 25.0516L34.9574 8.78905C35.0294 8.68906 35.1204 8.60422 35.2251 8.53938C35.3299 8.47453 35.4464 8.43096 35.5679 8.41114C35.6895 8.39132 35.8138 8.39564 35.9338 8.42386C36.0537 8.45208 36.1669 8.50364 36.2669 8.5756C36.3668 8.64756 36.4517 8.73851 36.5165 8.84326C36.5814 8.94801 36.6249 9.06451 36.6448 9.1861C36.6646 9.30769 36.6603 9.43199 36.632 9.55191C36.6038 9.67183 36.5523 9.78501 36.4803 9.885L24.8066 26.1431C24.7375 26.2493 24.6476 26.3403 24.5423 26.4107C24.437 26.4812 24.3186 26.5295 24.1941 26.5529C24.0696 26.5763 23.9417 26.5743 23.818 26.5469C23.6943 26.5195 23.5775 26.4673 23.4745 26.3935C23.3716 26.3197 23.2847 26.2258 23.219 26.1175C23.1533 26.0092 23.1103 25.8887 23.0924 25.7633C23.0746 25.6379 23.0824 25.5102 23.1153 25.3879C23.1481 25.2656 23.2055 25.1512 23.2838 25.0516Z" fill="white"/>
</g>
</g>
</g>
</g>
<defs>
<clipPath id="clip0_2_411">
<rect width="60" height="60" fill="white"/>
</clipPath>
<clipPath id="clip1_2_411">
<rect width="1920" height="1200" fill="white"/>
</clipPath>
<clipPath id="clip2_2_411">
<rect width="60" height="60" fill="white"/>
</clipPath>
<clipPath id="clip3_2_411">
<rect width="51.4851" height="60" fill="white" transform="translate(4.25745)"/>
</clipPath>
</defs>
</svg>
