<svg width="60" height="60" viewBox="0 0 60 60" fill="none" xmlns="http://www.w3.org/2000/svg">
<g clip-path="url(#clip0_2_423)">
<g clip-path="url(#clip1_2_423)">
<g clip-path="url(#clip2_2_423)">
<g clip-path="url(#clip3_2_423)">
<path d="M21.2335 48.9094L22.7603 50.1012L23.281 53.14H37.0277L36.4975 51.0926L38.545 48.9094V23.8419L36.4975 22.4636V19.5615H23.281V22.4646L21.2335 23.843V48.9094Z" fill="#4D9C78"/>
<path d="M29.9766 0.00235862C29.8063 0.00507822 29.6398 0.0541993 29.4953 0.144438L0.434691 18.8958C0.263092 19.0049 0.131622 19.1668 0.0601144 19.3571C-0.0113935 19.5475 -0.0190606 19.7559 0.0382695 19.951C0.0955997 20.1461 0.214818 20.3173 0.377939 20.4387C0.54106 20.5601 0.739236 20.6251 0.942573 20.624H3.92624C3.81357 20.9239 3.75401 21.2411 3.75024 21.5613C3.75398 22.1401 3.93594 22.7036 4.27137 23.1753C4.60679 23.6469 5.07938 24.0038 5.62484 24.1972V48.9191C5.07913 49.1135 4.60649 49.4711 4.27111 49.9435C3.93573 50.4158 3.75387 50.9799 3.75024 51.5592C3.75379 51.8795 3.81336 52.1967 3.92624 52.4965H3.75554C2.76105 52.4965 1.80729 52.8916 1.10407 53.5948C0.400862 54.298 0.00580189 55.2518 0.00580189 56.2463C0.00580189 57.2408 0.400862 58.1945 1.10407 58.8977C1.80729 59.6009 2.76105 59.996 3.75554 59.996H56.2508C57.2453 59.996 58.199 59.6009 58.9022 58.8977C59.6054 58.1945 60.0005 57.2408 60.0005 56.2463C60.0005 55.2518 59.6054 54.298 58.9022 53.5948C58.199 52.8916 57.2453 52.4965 56.2508 52.4965H56.0748C56.1876 52.1967 56.2472 51.8795 56.2508 51.5592C56.2471 50.9799 56.0653 50.4158 55.7299 49.9435C55.3945 49.4711 54.9219 49.1135 54.3762 48.9191V24.1972C54.9214 24.0035 55.3939 23.6466 55.7293 23.175C56.0646 22.7034 56.2467 22.14 56.2508 21.5613C56.2474 21.241 56.1878 20.9238 56.0748 20.624H59.0616C59.264 20.6241 59.461 20.5585 59.6231 20.4373C59.7851 20.3161 59.9036 20.1456 59.9608 19.9515C60.018 19.7573 60.0107 19.5498 59.9402 19.3601C59.8697 19.1704 59.7396 19.0086 59.5695 18.8989L30.511 0.1508C30.352 0.0485441 30.1657 -0.00320231 29.9766 0.00235862ZM30.0032 2.05721L55.8744 18.7473H4.12982L30.0032 2.05721ZM30.0032 7.49759C29.2616 7.49759 28.5368 7.71747 27.9202 8.12944C27.3036 8.54141 26.8231 9.12696 26.5393 9.81203C26.2556 10.4971 26.1813 11.251 26.326 11.9782C26.4706 12.7055 26.8277 13.3735 27.3521 13.8979C27.8764 14.4222 28.5444 14.7793 29.2717 14.924C29.999 15.0686 30.7528 14.9944 31.4379 14.7106C32.123 14.4268 32.7085 13.9463 33.1205 13.3297C33.5325 12.7132 33.7524 11.9883 33.7524 11.2468C33.7479 10.2541 33.3513 9.30341 32.6491 8.60177C31.9469 7.90013 30.9958 7.50439 30.0032 7.50077V7.49759ZM30.0032 9.37219C30.3739 9.37219 30.7363 9.48213 31.0446 9.68812C31.3529 9.8941 31.5932 10.1869 31.7351 10.5294C31.8769 10.872 31.9141 11.2489 31.8417 11.6125C31.7694 11.9761 31.5909 12.3102 31.3287 12.5723C31.0665 12.8345 30.7325 13.013 30.3689 13.0854C30.0052 13.1577 29.6283 13.1206 29.2858 12.9787C28.9432 12.8368 28.6505 12.5965 28.4445 12.2883C28.2385 11.98 28.1285 11.6176 28.1285 11.2468C28.1271 11.0004 28.1747 10.7561 28.2684 10.5282C28.3622 10.3003 28.5003 10.0933 28.6747 9.91922C28.8491 9.74512 29.0563 9.60739 29.2843 9.51403C29.5124 9.42067 29.7567 9.37354 30.0032 9.37537V9.37219ZM6.56744 20.624H10.3166C10.5652 20.624 10.8036 20.7228 10.9794 20.8986C11.1552 21.0744 11.2539 21.3128 11.2539 21.5613C11.2539 21.8099 11.1552 22.0483 10.9794 22.2241C10.8036 22.3999 10.5652 22.4986 10.3166 22.4986H6.56744C6.31885 22.4986 6.08045 22.3999 5.90467 22.2241C5.72889 22.0483 5.63014 21.8099 5.63014 21.5613C5.63014 21.3128 5.72889 21.0744 5.90467 20.8986C6.08045 20.7228 6.31885 20.624 6.56744 20.624ZM12.9536 20.624H15.1802C15.0675 20.9239 15.008 21.2411 15.0042 21.5613C15.008 22.1401 15.1899 22.7036 15.5253 23.1753C15.8608 23.6469 16.3334 24.0038 16.8788 24.1972V48.9191C16.3331 49.1135 15.8605 49.4711 15.5251 49.9435C15.1897 50.4158 15.0078 50.9799 15.0042 51.5592C15.0078 51.8795 15.0673 52.1967 15.1802 52.4965H12.9536C13.0665 52.1967 13.1261 51.8795 13.1296 51.5592C13.126 50.9799 12.9441 50.4158 12.6087 49.9435C12.2734 49.4711 11.8007 49.1135 11.255 48.9191V24.1972C11.8003 24.0035 12.2727 23.6466 12.6081 23.175C12.9435 22.7034 13.1256 22.14 13.1296 21.5613C13.1262 21.241 13.0667 20.9238 12.9536 20.624ZM17.8172 20.624H21.5664C21.815 20.624 22.0534 20.7228 22.2292 20.8986C22.4049 21.0744 22.5037 21.3128 22.5037 21.5613C22.5037 21.8099 22.4049 22.0483 22.2292 22.2241C22.0534 22.3999 21.815 22.4986 21.5664 22.4986H17.8161C17.5675 22.4986 17.3291 22.3999 17.1533 22.2241C16.9776 22.0483 16.8788 21.8099 16.8788 21.5613C16.8788 21.3128 16.9776 21.0744 17.1533 20.8986C17.3291 20.7228 17.5675 20.624 17.8161 20.624H17.8172ZM24.2033 20.624H35.804C35.6914 20.9239 35.6318 21.2411 35.628 21.5613C35.6318 22.1401 35.8137 22.7036 36.1492 23.1753C36.4846 23.6469 36.9572 24.0038 37.5026 24.1972V48.9191C36.9569 49.1135 36.4843 49.4711 36.1489 49.9435C35.8135 50.4158 35.6317 50.9799 35.628 51.5592C35.6316 51.8795 35.6911 52.1967 35.804 52.4965H24.2023C24.3152 52.1967 24.3747 51.8795 24.3783 51.5592C24.3746 50.9799 24.1928 50.4158 23.8574 49.9435C23.522 49.4711 23.0494 49.1135 22.5037 48.9191V24.1972C23.049 24.0035 23.5214 23.6466 23.8568 23.175C24.1922 22.7034 24.3742 22.14 24.3783 21.5613C24.3749 21.241 24.3164 20.9238 24.2033 20.624ZM38.441 20.624H42.1902C42.4388 20.624 42.6772 20.7228 42.853 20.8986C43.0287 21.0744 43.1275 21.3128 43.1275 21.5613C43.1275 21.8099 43.0287 22.0483 42.853 22.2241C42.6772 22.3999 42.4388 22.4986 42.1902 22.4986H38.4399C38.1913 22.4986 37.9529 22.3999 37.7772 22.2241C37.6014 22.0483 37.5026 21.8099 37.5026 21.5613C37.5026 21.3128 37.6014 21.0744 37.7772 20.8986C37.9529 20.7228 38.1924 20.624 38.441 20.624ZM44.8271 20.624H47.0538C46.9411 20.9239 46.8815 21.2411 46.8778 21.5613C46.8815 22.1401 47.0635 22.7036 47.3989 23.1753C47.7343 23.6469 48.2069 24.0038 48.7524 24.1972V48.9191C48.2067 49.1135 47.734 49.4711 47.3986 49.9435C47.0633 50.4158 46.8814 50.9799 46.8778 51.5592C46.8813 51.8795 46.9409 52.1967 47.0538 52.4965H44.8271C44.94 52.1967 44.9996 51.8795 45.0032 51.5592C44.9995 50.9799 44.8177 50.4158 44.4823 49.9435C44.1469 49.4711 43.6743 49.1135 43.1286 48.9191V24.1972C43.6738 24.0035 44.1463 23.6466 44.4816 23.175C44.817 22.7034 44.9991 22.14 45.0032 21.5613C44.9994 21.241 44.9395 20.9237 44.8261 20.624H44.8271ZM49.6907 20.624H53.442C53.6906 20.624 53.929 20.7228 54.1048 20.8986C54.2806 21.0744 54.3793 21.3128 54.3793 21.5613C54.3793 21.8099 54.2806 22.0483 54.1048 22.2241C53.929 22.3999 53.6906 22.4986 53.442 22.4986H49.6886C49.44 22.4986 49.2016 22.3999 49.0258 22.2241C48.85 22.0483 48.7513 21.8099 48.7513 21.5613C48.7513 21.3128 48.85 21.0744 49.0258 20.8986C49.2016 20.7228 49.44 20.624 49.6886 20.624H49.6907ZM7.50474 24.3743H9.37934V48.7473H7.50474V24.3743ZM18.7534 24.3743H20.628V48.7473H18.7545L18.7534 24.3743ZM39.3772 24.3743H41.2486V48.7473H39.3772V24.3743ZM50.6259 24.3743H52.5005V48.7473H50.6259V24.3743ZM6.56744 50.6219H10.3166C10.5652 50.6219 10.8036 50.7207 10.9794 50.8965C11.1552 51.0722 11.2539 51.3106 11.2539 51.5592C11.2539 51.8078 11.1552 52.0462 10.9794 52.222C10.8036 52.3978 10.5652 52.4965 10.3166 52.4965H6.56744C6.31885 52.4965 6.08045 52.3978 5.90467 52.222C5.72889 52.0462 5.63014 51.8078 5.63014 51.5592C5.63014 51.3106 5.72889 51.0722 5.90467 50.8965C6.08045 50.7207 6.31885 50.6219 6.56744 50.6219ZM17.8161 50.6219H21.5653C21.8139 50.6219 22.0523 50.7207 22.2281 50.8965C22.4039 51.0722 22.5026 51.3106 22.5026 51.5592C22.5026 51.8078 22.4039 52.0462 22.2281 52.222C22.0523 52.3978 21.8139 52.4965 21.5653 52.4965H17.8161C17.5675 52.4965 17.3291 52.3978 17.1533 52.222C16.9776 52.0462 16.8788 51.8078 16.8788 51.5592C16.8788 51.3106 16.9776 51.0722 17.1533 50.8965C17.3291 50.7207 17.5675 50.6219 17.8161 50.6219ZM38.4399 50.6219H42.1891C42.4377 50.6219 42.6761 50.7207 42.8519 50.8965C43.0277 51.0722 43.1264 51.3106 43.1264 51.5592C43.1264 51.8078 43.0277 52.0462 42.8519 52.222C42.6761 52.3978 42.4377 52.4965 42.1891 52.4965H38.4399C38.1913 52.4965 37.9529 52.3978 37.7772 52.222C37.6014 52.0462 37.5026 51.8078 37.5026 51.5592C37.5026 51.3106 37.6014 51.0722 37.7772 50.8965C37.9529 50.7207 38.1913 50.6219 38.4399 50.6219ZM49.6886 50.6219H53.442C53.6906 50.6219 53.929 50.7207 54.1048 50.8965C54.2806 51.0722 54.3793 51.3106 54.3793 51.5592C54.3793 51.8078 54.2806 52.0462 54.1048 52.222C53.929 52.3978 53.6906 52.4965 53.442 52.4965H49.6886C49.44 52.4965 49.2016 52.3978 49.0258 52.222C48.85 52.0462 48.7513 51.8078 48.7513 51.5592C48.7513 51.3106 48.85 51.0722 49.0258 50.8965C49.2016 50.7207 49.44 50.6219 49.6886 50.6219ZM3.75554 54.3711H56.2508C56.7479 54.3711 57.2248 54.5686 57.5763 54.9202C57.9279 55.2717 58.1254 55.7486 58.1254 56.2457C58.1254 56.7429 57.9279 57.2197 57.5763 57.5713C57.2248 57.9228 56.7479 58.1203 56.2508 58.1203H3.75554C3.25836 58.1203 2.78155 57.9228 2.42999 57.5713C2.07844 57.2197 1.88093 56.7429 1.88093 56.2457C1.88093 55.7486 2.07844 55.2717 2.42999 54.9202C2.78155 54.5686 3.25836 54.3711 3.75554 54.3711Z" fill="#333333"/>
<path d="M25.3644 29.998V30.0171H25.3209V31.8917H27.2464C27.8772 31.8114 28.5163 31.9526 29.0545 32.2912C29.5927 32.6298 29.9966 33.1449 30.1972 33.7483H25.3644V35.6229H30.1972C29.9965 36.2265 29.5927 36.7418 29.0546 37.0809C28.5165 37.42 27.8775 37.562 27.2464 37.4827H25.3198V39.353H25.8744L31.5925 44.9927L32.9168 43.6653L28.4265 39.2332C29.3283 39.0581 30.1592 38.6228 30.8166 37.9811C31.4739 37.3393 31.9291 36.5192 32.1259 35.6219H34.6854V33.7473H32.1216C31.9685 33.0623 31.6614 32.4212 31.2236 31.8726H34.6812V29.998H25.3644Z" fill="white"/>
</g>
</g>
</g>
</g>
<defs>
<clipPath id="clip0_2_423">
<rect width="60" height="60" fill="white"/>
</clipPath>
<clipPath id="clip1_2_423">
<rect width="1920" height="1200" fill="white"/>
</clipPath>
<clipPath id="clip2_2_423">
<rect width="60" height="60" fill="white"/>
</clipPath>
<clipPath id="clip3_2_423">
<rect width="60" height="59.9915" fill="white" transform="translate(0 0.00390625)"/>
</clipPath>
</defs>
</svg>
