<svg width="16" height="17" viewBox="0 0 16 17" fill="none" xmlns="http://www.w3.org/2000/svg">
<g clip-path="url(#clip0_2_1021)">
<path d="M15.8125 14.8457L11.3652 10.3541C12.3733 9.08265 12.8556 7.47314 12.713 5.85682C12.5704 4.2405 11.8137 2.74031 10.5986 1.66497C9.3835 0.589631 7.80244 0.0209355 6.18077 0.0759101C4.5591 0.130885 3.02019 0.805347 1.8807 1.96051C0.741207 3.11567 0.0878279 4.66366 0.0550096 6.28593C0.0221913 7.9082 0.612431 9.48134 1.70427 10.6816C2.79611 11.8819 4.30649 12.6181 5.92461 12.7386C7.54273 12.8591 9.14549 12.3548 10.4031 11.3295L14.8238 15.7923C14.9489 15.9235 15.1209 15.9998 15.3021 16.0045C15.4833 16.0092 15.659 15.9418 15.7907 15.8172C15.9218 15.6909 15.9976 15.5179 16.0017 15.336C16.0058 15.154 15.9378 14.9778 15.8125 14.8457ZM6.37935 11.3832C5.22083 11.383 4.09824 10.9811 3.20283 10.2459C2.30743 9.51081 1.69461 8.48796 1.46878 7.35166C1.24296 6.21537 1.4181 5.03592 1.96438 4.01428C2.51065 2.99264 3.39425 2.19201 4.46464 1.7488C5.53502 1.30559 6.72597 1.24722 7.83457 1.58364C8.94317 1.92005 9.90083 2.63044 10.5444 3.59377C11.1879 4.55709 11.4776 5.71376 11.364 6.86669C11.2503 8.01962 10.7405 9.09749 9.92124 9.91665C9.45714 10.3831 8.90514 10.7529 8.29718 11.0047C7.68922 11.2564 7.03737 11.3851 6.37935 11.3832Z" fill="black"/>
</g>
<defs>
<clipPath id="clip0_2_1021">
<rect width="16" height="16.0047" fill="white"/>
</clipPath>
</defs>
</svg>
