<svg width="14" height="8" viewBox="0 0 14 8" fill="none" xmlns="http://www.w3.org/2000/svg">
<path d="M7.0008 5.58853L12.2914 0.293649C12.3839 0.200588 12.4939 0.126736 12.6151 0.0763402C12.7362 0.0259448 12.8661 0 12.9974 0C13.1286 0 13.2585 0.0259448 13.3797 0.0763402C13.5008 0.126736 13.6108 0.200588 13.7033 0.293649C13.8895 0.482347 13.9938 0.736738 13.9938 1.00179C13.9938 1.26683 13.8895 1.52122 13.7033 1.70992L7.70894 7.70864C7.52707 7.89002 7.28226 7.99427 7.02546 7.99968C6.76867 8.00509 6.51968 7.91125 6.33033 7.73769L0.293952 1.711C0.200958 1.61829 0.127135 1.50817 0.076699 1.38693C0.026263 1.26568 0.000201026 1.1357 1.15838e-06 1.00438C-0.00019871 0.87307 0.0254674 0.743004 0.0755341 0.62161C0.125601 0.500216 0.199088 0.389872 0.291799 0.296878C0.38451 0.203884 0.49463 0.130062 0.615871 0.0796255C0.737113 0.0291894 0.867101 0.00312699 0.998414 0.00292712C1.26361 0.00252347 1.51811 0.107487 1.70592 0.294726L7.0008 5.58853Z" fill="#333333"/>
</svg>
