<svg width="50" height="60" viewBox="0 0 50 60" fill="none" xmlns="http://www.w3.org/2000/svg">
<rect width="30" height="50" rx="15" fill="#4D9C78"/>
<path d="M9.06701 33.118L9.97292 33.6462C11.4864 34.5287 13.2064 35 15.0012 35C20.5241 35 25.0012 30.5229 25.0012 25C25.0012 19.4771 20.5241 15 15.0012 15C9.47837 15 5.00122 19.4771 5.00122 25C5.00122 26.7954 5.47276 28.516 6.35582 30.0298L6.8838 30.9348L6.06693 33.9368L9.06701 33.118ZM2.50645 37.5L4.1964 31.2894C3.11867 29.442 2.50122 27.2931 2.50122 25C2.50122 18.0964 8.09766 12.5 15.0012 12.5C21.9047 12.5 27.5012 18.0964 27.5012 25C27.5012 31.9035 21.9047 37.5 15.0012 37.5C12.7089 37.5 10.5606 36.883 8.71357 35.8059L2.50645 37.5ZM10.4904 19.1354C10.6577 19.1237 10.8257 19.1219 10.9932 19.13C11.0609 19.1345 11.1283 19.1423 11.1957 19.1501C11.3948 19.1731 11.6137 19.2943 11.6873 19.4612C12.0602 20.3067 12.422 21.1571 12.7727 22.012C12.8501 22.2008 12.8035 22.4454 12.6562 22.6821C12.5815 22.8035 12.4641 22.9738 12.3281 23.1479C12.1867 23.3287 11.8825 23.6614 11.8825 23.6614C11.8825 23.6614 11.7592 23.8091 11.8057 23.993C11.8238 24.0625 11.8815 24.1638 11.9338 24.2489C11.9628 24.296 11.9897 24.3381 12.0072 24.3673C12.3271 24.9014 12.7571 25.4429 13.2824 25.952C13.4329 26.0979 13.5789 26.2467 13.7359 26.385C14.3212 26.9011 14.9835 27.3229 15.6987 27.6353L15.7051 27.6381C15.8107 27.6836 15.865 27.7085 16.0196 27.7741C16.0976 27.8071 16.1774 27.8356 16.2592 27.8573C16.2889 27.865 16.3192 27.8694 16.3497 27.8715C16.5519 27.8836 16.6687 27.754 16.7186 27.6944C17.623 26.5988 17.7057 26.5273 17.712 26.5278V26.5297C17.8309 26.4045 18.0177 26.361 18.1845 26.3713C18.2606 26.3759 18.3364 26.3905 18.4056 26.4221C19.0704 26.7254 20.1572 27.1984 20.1572 27.1984L20.8841 27.5251C21.0059 27.5839 21.117 27.7223 21.1224 27.8568C21.1256 27.9404 21.1346 28.0754 21.1047 28.3224C21.0656 28.6458 20.9672 29.0351 20.8695 29.2391C20.8007 29.3822 20.7117 29.5093 20.6082 29.6168C20.4679 29.7625 20.3636 29.851 20.1949 29.9767C20.0921 30.0532 20.0389 30.0892 20.0389 30.0892C19.8652 30.1987 19.7674 30.2535 19.5605 30.3636C19.2387 30.535 18.8832 30.6335 18.5191 30.6522C18.287 30.6641 18.0555 30.6809 17.8236 30.6684C17.8134 30.6678 17.1134 30.5602 17.1134 30.5602C15.336 30.0928 13.6922 29.217 12.3129 28.0025C12.0309 27.7543 11.7694 27.4856 11.5024 27.2199C10.3911 26.1135 9.54977 24.9205 9.03961 23.792C8.78803 23.2355 8.62873 22.6395 8.62622 22.0262C8.62161 21.2676 8.86998 20.529 9.33211 19.9273C9.42321 19.8087 9.50967 19.6857 9.65886 19.5448C9.81685 19.3956 9.9174 19.3156 10.0257 19.2601C10.1701 19.1863 10.3287 19.1468 10.4904 19.1354Z" fill="white"/>
</svg>
