<svg width="60" height="60" viewBox="0 0 60 60" fill="none" xmlns="http://www.w3.org/2000/svg">
<g clip-path="url(#clip0_2_399)">
<g clip-path="url(#clip1_2_399)">
<g clip-path="url(#clip2_2_399)">
<g clip-path="url(#clip3_2_399)">
<path d="M32.9316 37.709H3.63456C1.943 37.709 0.571716 39.0803 0.571716 40.7718V56.3566C0.571716 58.0481 1.943 59.4194 3.63456 59.4194H32.9316C34.6232 59.4194 35.9945 58.0481 35.9945 56.3566V40.7718C35.9945 39.0803 34.6232 37.709 32.9316 37.709Z" fill="#4D9C78"/>
<path d="M42.1559 26.9101H37.4749C36.9319 26.9106 36.4113 27.1266 36.0273 27.5105C35.6434 27.8945 35.4274 28.4151 35.4269 28.9581V31.8831C35.4274 32.4261 35.6434 32.9467 36.0273 33.3307C36.4113 33.7146 36.9319 33.9306 37.4749 33.9311H42.1549C42.6979 33.9306 43.2185 33.7146 43.6025 33.3307C43.9864 32.9467 44.2024 32.4261 44.2029 31.8831V28.9581C44.2024 28.4151 43.9864 27.8945 43.6025 27.5105C43.2185 27.1266 42.6989 26.9106 42.1559 26.9101ZM42.4489 31.8831C42.4489 31.9608 42.4181 32.0354 42.3631 32.0903C42.3082 32.1452 42.2336 32.1761 42.1559 32.1761H37.4749C37.3972 32.1761 37.3226 32.1452 37.2677 32.0903C37.2127 32.0354 37.1819 31.9608 37.1819 31.8831V28.9581C37.1819 28.8804 37.2127 28.8059 37.2677 28.7509C37.3226 28.696 37.3972 28.6651 37.4749 28.6651H42.1549C42.2326 28.6651 42.3071 28.696 42.3621 28.7509C42.417 28.8059 42.4479 28.8804 42.4479 28.9581L42.4489 31.8831ZM43.327 21.644H36.309C36.0814 21.6518 35.8658 21.7477 35.7076 21.9114C35.5493 22.0751 35.4609 22.2939 35.4609 22.5215C35.4609 22.7492 35.5493 22.968 35.7076 23.1317C35.8658 23.2954 36.0814 23.3913 36.309 23.399H43.33C43.4478 23.4031 43.5651 23.3833 43.6751 23.341C43.7851 23.2988 43.8854 23.2348 43.9701 23.1529C44.0548 23.071 44.1222 22.9729 44.1682 22.8644C44.2142 22.756 44.238 22.6394 44.238 22.5215C44.238 22.4037 44.2142 22.2871 44.1682 22.1786C44.1222 22.0702 44.0548 21.9721 43.9701 21.8902C43.8854 21.8083 43.7851 21.7443 43.6751 21.702C43.5651 21.6597 43.4478 21.64 43.33 21.644H43.327ZM31.6249 26.9101H26.9438C26.4008 26.9106 25.8802 27.1266 25.4963 27.5105C25.1123 27.8945 24.8963 28.4151 24.8958 28.9581V31.8831C24.8963 32.4261 25.1123 32.9467 25.4963 33.3307C25.8802 33.7146 26.4008 33.9306 26.9438 33.9311H31.6238C32.1668 33.9306 32.6875 33.7146 33.0714 33.3307C33.4554 32.9467 33.6713 32.4261 33.6719 31.8831V28.9581C33.6713 28.4151 33.4554 27.8945 33.0714 27.5105C32.6875 27.1266 32.1679 26.9106 31.6249 26.9101ZM31.9179 31.8831C31.9179 31.9608 31.887 32.0354 31.8321 32.0903C31.7771 32.1452 31.7026 32.1761 31.6249 32.1761H26.9438C26.8661 32.1761 26.7916 32.1452 26.7366 32.0903C26.6817 32.0354 26.6508 31.9608 26.6508 31.8831V28.9581C26.6508 28.8804 26.6817 28.8059 26.7366 28.7509C26.7916 28.696 26.8661 28.6651 26.9438 28.6651H31.6238C31.7016 28.6651 31.7761 28.696 31.831 28.7509C31.886 28.8059 31.9169 28.8804 31.9169 28.9581L31.9179 31.8831ZM32.7959 21.644H25.7738C25.6561 21.64 25.5387 21.6597 25.4287 21.702C25.3188 21.7443 25.2184 21.8083 25.1337 21.8902C25.049 21.9721 24.9816 22.0702 24.9356 22.1786C24.8896 22.2871 24.8659 22.4037 24.8659 22.5215C24.8659 22.6394 24.8896 22.756 24.9356 22.8644C24.9816 22.9729 25.049 23.071 25.1337 23.1529C25.2184 23.2348 25.3188 23.2988 25.4287 23.341C25.5387 23.3833 25.6561 23.4031 25.7738 23.399H32.7949C32.9126 23.4031 33.03 23.3833 33.1399 23.341C33.2499 23.2988 33.3503 23.2348 33.435 23.1529C33.5197 23.071 33.5871 22.9729 33.6331 22.8644C33.6791 22.756 33.7028 22.6394 33.7028 22.5215C33.7028 22.4037 33.6791 22.2871 33.6331 22.1786C33.5871 22.0702 33.5197 21.9721 33.435 21.8902C33.3503 21.8083 33.2499 21.7443 33.1399 21.702C33.03 21.6597 32.9136 21.64 32.7959 21.644ZM52.102 5.3579H27.5288C26.8308 5.35871 26.1615 5.63638 25.6679 6.12999C25.1743 6.6236 24.8966 7.29285 24.8958 7.99092V15.499C24.8961 16.1974 25.1735 16.8672 25.6672 17.3612C26.1608 17.8553 26.8304 18.1332 27.5288 18.134H52.102C52.8002 18.1329 53.4695 17.8549 53.963 17.3609C54.4564 16.8668 54.7337 16.1972 54.734 15.499V7.99092C54.7332 7.29285 54.4555 6.6236 53.9619 6.12999C53.4683 5.63638 52.8001 5.35871 52.102 5.3579ZM52.98 15.502C52.9797 15.7348 52.8871 15.958 52.7225 16.1226C52.5579 16.2872 52.3348 16.3798 52.102 16.38H27.5288C27.296 16.3798 27.0729 16.2872 26.9083 16.1226C26.7437 15.958 26.6511 15.7348 26.6508 15.502V7.99092C26.6511 7.75814 26.7437 7.53497 26.9083 7.37037C27.0729 7.20577 27.296 7.11318 27.5288 7.11291H52.102C52.3348 7.11318 52.5579 7.20577 52.7225 7.37037C52.8871 7.53497 52.9797 7.75814 52.98 7.99092V15.502ZM50.346 10.8679C50.1723 10.8679 50.0025 10.9194 49.8582 11.0159C49.7138 11.1124 49.6012 11.2495 49.5348 11.41C49.4683 11.5704 49.4509 11.7469 49.4848 11.9173C49.5187 12.0876 49.6023 12.244 49.7251 12.3668C49.8479 12.4896 50.0043 12.5732 50.1747 12.6071C50.345 12.641 50.5215 12.6236 50.682 12.5571C50.8424 12.4907 50.9795 12.3781 51.076 12.2338C51.1725 12.0894 51.224 11.9196 51.224 11.746C51.224 11.5131 51.1315 11.2898 50.9668 11.1251C50.8021 10.9605 50.5788 10.8679 50.346 10.8679ZM46.8359 10.8679C46.6623 10.8679 46.4925 10.9194 46.3481 11.0159C46.2038 11.1124 46.0912 11.2495 46.0248 11.41C45.9583 11.5704 45.9409 11.7469 45.9748 11.9173C46.0087 12.0876 46.0923 12.244 46.2151 12.3668C46.3379 12.4896 46.4943 12.5732 46.6646 12.6071C46.835 12.641 47.0115 12.6236 47.1719 12.5571C47.3324 12.4907 47.4695 12.3781 47.566 12.2338C47.6625 12.0894 47.714 11.9196 47.714 11.746C47.714 11.5131 47.6215 11.2898 47.4568 11.1251C47.2921 10.9605 47.0688 10.8679 46.8359 10.8679ZM58.7116 1.2833C58.3051 0.875354 57.8218 0.551993 57.2896 0.331898C56.7574 0.111802 56.1869 -0.000664265 55.611 0.00099465H55.6049L24.0096 0.0826703C22.8473 0.0856439 21.7335 0.54948 20.9126 1.37246C20.0918 2.19543 19.6308 3.31036 19.6308 4.47274V37.4085H4.38805C3.22374 37.4085 2.10711 37.871 1.28381 38.6943C0.46051 39.5176 -0.00201416 40.6342 -0.00201416 41.7985V55.6119C-0.00201416 56.7763 0.46051 57.8929 1.28381 58.7162C2.10711 59.5395 3.22374 60.002 4.38805 60.002H32.6683C32.8296 60.0017 32.9908 59.9925 33.1512 59.9744L55.6202 59.9101C56.7818 59.9061 57.8945 59.4418 58.7145 58.6189C59.5345 57.796 59.9949 56.6817 59.9949 55.5201V4.38902C59.9972 3.81218 59.8849 3.24063 59.6646 2.70751C59.4443 2.17438 59.1204 1.69029 58.7116 1.2833ZM35.2962 55.6099C35.2954 56.308 35.0177 56.9772 34.5241 57.4708C34.0305 57.9644 33.3612 58.2421 32.6632 58.2429H4.38805C3.68998 58.2421 3.02074 57.9644 2.52712 57.4708C2.03351 56.9772 1.75585 56.308 1.75503 55.6099V41.7965C1.75585 41.0984 2.03351 40.4292 2.52712 39.9356C3.02074 39.442 3.68998 39.1643 4.38805 39.1635H32.6683C33.3663 39.1643 34.0356 39.442 34.5292 39.9356C35.0228 40.4292 35.3005 41.0984 35.3013 41.7965L35.2962 55.6099ZM58.245 55.5201C58.2442 56.2172 57.9672 56.8857 57.4747 57.3792C56.9822 57.8727 56.3143 58.1509 55.6171 58.1531L36.1977 58.2041C36.7534 57.4523 37.053 56.5418 37.0522 55.6068V54.688C37.1915 54.7177 37.3335 54.7327 37.4759 54.7329H42.1559C42.6989 54.7324 43.2195 54.5164 43.6035 54.1325C43.9875 53.7485 44.2034 53.2279 44.2039 52.6849V49.764C44.2034 49.221 43.9875 48.7004 43.6035 48.3164C43.2195 47.9324 42.6989 47.7165 42.1559 47.7159H37.4749C37.3325 47.7161 37.1905 47.7312 37.0512 47.7609V44.4173C37.1905 44.4469 37.3325 44.462 37.4749 44.4622H42.1549C42.6979 44.4617 43.2185 44.2457 43.6025 43.8617C43.9864 43.4778 44.2024 42.9572 44.2029 42.4142V39.4912C44.2024 38.9482 43.9864 38.4276 43.6025 38.0436C43.2185 37.6597 42.6979 37.4437 42.1549 37.4432H37.4749C37.0939 37.4438 36.7207 37.5507 36.3971 37.7518C36.0736 37.9529 35.8125 38.2402 35.6433 38.5815C34.8338 37.8283 33.7689 37.4098 32.6632 37.4105H21.3858V4.47274C21.3869 3.77563 21.6639 3.10731 22.1564 2.6139C22.6488 2.1205 23.3166 1.84215 24.0137 1.83972L55.6049 1.756C56.3032 1.756 56.9729 2.03341 57.4667 2.5272C57.9605 3.02098 58.2379 3.6907 58.2379 4.38902L58.245 55.5201ZM37.1829 52.6859V49.764C37.1829 49.6863 37.2138 49.6117 37.2687 49.5568C37.3237 49.5018 37.3982 49.471 37.4759 49.471H42.1559C42.2336 49.471 42.3082 49.5018 42.3631 49.5568C42.4181 49.6117 42.4489 49.6863 42.4489 49.764V52.689C42.4489 52.7667 42.4181 52.8412 42.3631 52.8962C42.3082 52.9511 42.2336 52.982 42.1559 52.982H37.4749C37.3972 52.982 37.3226 52.9511 37.2677 52.8962C37.2127 52.8412 37.1819 52.7667 37.1819 52.689L37.1829 52.6859ZM37.1829 42.4111V39.4912C37.1829 39.4135 37.2138 39.339 37.2687 39.284C37.3237 39.2291 37.3982 39.1982 37.4759 39.1982H42.1559C42.2336 39.1982 42.3082 39.2291 42.3631 39.284C42.4181 39.339 42.4489 39.4135 42.4489 39.4912V42.4162C42.4489 42.4939 42.4181 42.5685 42.3631 42.6234C42.3082 42.6784 42.2336 42.7092 42.1559 42.7092H37.4749C37.3972 42.7092 37.3226 42.6784 37.2677 42.6234C37.2127 42.5685 37.1819 42.4939 37.1819 42.4162L37.1829 42.4111ZM53.857 21.644H46.8359C46.6084 21.6518 46.3928 21.7477 46.2345 21.9114C46.0763 22.0751 45.9879 22.2939 45.9879 22.5215C45.9879 22.7492 46.0763 22.968 46.2345 23.1317C46.3928 23.2954 46.6084 23.3913 46.8359 23.399H53.857C54.0845 23.3913 54.3002 23.2954 54.4584 23.1317C54.6166 22.968 54.7051 22.7492 54.7051 22.5215C54.7051 22.2939 54.6166 22.0751 54.4584 21.9114C54.3002 21.7477 54.0845 21.6518 53.857 21.644ZM43.3259 10.8679C43.1523 10.8679 42.9825 10.9194 42.8381 11.0159C42.6937 11.1124 42.5812 11.2495 42.5147 11.41C42.4483 11.5704 42.4309 11.7469 42.4648 11.9173C42.4987 12.0876 42.5823 12.244 42.7051 12.3668C42.8279 12.4896 42.9843 12.5732 43.1546 12.6071C43.325 12.641 43.5015 12.6236 43.6619 12.5571C43.8224 12.4907 43.9595 12.3781 44.056 12.2338C44.1525 12.0894 44.2039 11.9196 44.2039 11.746C44.2039 11.5131 44.1114 11.2898 43.9468 11.1251C43.7821 10.9605 43.5588 10.8679 43.3259 10.8679ZM52.687 26.9101H48.0059C47.4629 26.9106 46.9423 27.1266 46.5584 27.5105C46.1744 27.8945 45.9585 28.4151 45.9579 28.9581V31.8831C45.9585 32.4261 46.1744 32.9467 46.5584 33.3307C46.9423 33.7146 47.4629 33.9306 48.0059 33.9311H52.686C53.229 33.9306 53.7496 33.7146 54.1335 33.3307C54.5175 32.9467 54.7334 32.4261 54.734 31.8831V28.9581C54.7334 28.4153 54.5176 27.8948 54.1339 27.5109C53.7502 27.127 53.2298 26.9109 52.687 26.9101ZM52.98 31.8831C52.98 31.9608 52.9491 32.0354 52.8942 32.0903C52.8392 32.1452 52.7647 32.1761 52.687 32.1761H48.0059C47.9282 32.1761 47.8537 32.1452 47.7988 32.0903C47.7438 32.0354 47.7129 31.9608 47.7129 31.8831V28.9581C47.7129 28.8804 47.7438 28.8059 47.7988 28.7509C47.8537 28.696 47.9282 28.6651 48.0059 28.6651H52.686C52.7637 28.6651 52.8382 28.696 52.8932 28.7509C52.9481 28.8059 52.979 28.8804 52.979 28.9581L52.98 31.8831ZM52.687 37.4411H48.0059C47.4628 37.442 46.9421 37.6583 46.5583 38.0427C46.1745 38.427 45.9589 38.948 45.9589 39.4912V52.692C45.9595 53.235 46.1754 53.7556 46.5594 54.1396C46.9434 54.5236 47.464 54.7395 48.007 54.7401H52.687C53.23 54.7395 53.7506 54.5236 54.1346 54.1396C54.5185 53.7556 54.7345 53.235 54.735 52.692V39.4912C54.7345 38.9482 54.5185 38.4276 54.1346 38.0436C53.7506 37.6597 53.23 37.4437 52.687 37.4432V37.4411ZM52.98 52.689C52.98 52.7667 52.9491 52.8412 52.8942 52.8962C52.8392 52.9511 52.7647 52.982 52.687 52.982H48.0059C47.9282 52.982 47.8537 52.9511 47.7988 52.8962C47.7438 52.8412 47.7129 52.7667 47.7129 52.689V39.4912C47.7129 39.4135 47.7438 39.339 47.7988 39.284C47.8537 39.2291 47.9282 39.1982 48.0059 39.1982H52.686C52.7637 39.1982 52.8382 39.2291 52.8932 39.284C52.9481 39.339 52.979 39.4135 52.979 39.4912L52.98 52.689ZM39.8149 10.8679C39.6412 10.8679 39.4715 10.9194 39.3271 11.0159C39.1827 11.1124 39.0702 11.2495 39.0037 11.41C38.9373 11.5704 38.9199 11.7469 38.9538 11.9173C38.9876 12.0876 39.0713 12.244 39.194 12.3668C39.3168 12.4896 39.4733 12.5732 39.6436 12.6071C39.8139 12.641 39.9905 12.6236 40.1509 12.5571C40.3113 12.4907 40.4485 12.3781 40.5449 12.2338C40.6414 12.0894 40.6929 11.9196 40.6929 11.746C40.6929 11.5131 40.6004 11.2898 40.4357 11.1251C40.2711 10.9605 40.0478 10.8679 39.8149 10.8679Z" fill="#333333"/>
<path d="M21.0468 44.4947C21.0468 44.4814 21.0468 44.4692 21.0407 44.4569C21.0345 44.4447 21.0407 44.4375 21.0407 44.4273C21.0407 44.4171 21.0325 44.3947 21.0284 44.3783V44.361C21.0284 44.3457 21.0182 44.3314 21.0131 44.3171L20.9968 44.2977C20.9917 44.2854 20.9855 44.2732 20.9794 44.2619C20.9733 44.2507 20.9712 44.2436 20.9661 44.2354L20.9498 44.2078L20.9304 44.1752L20.9161 44.1558C20.908 44.1435 20.8988 44.1313 20.8896 44.12L20.8753 44.1047C20.8651 44.0925 20.8549 44.0812 20.8436 44.07L20.811 44.0404L20.7926 44.0241C20.7743 44.0088 20.7552 43.9945 20.7354 43.9812H20.7283C20.7112 43.9696 20.6936 43.9591 20.6752 43.9495L20.6558 43.9301L20.6129 43.9097L20.5843 43.8995L20.5486 43.8873L20.5118 43.8781L20.4822 43.8709L20.4363 43.8638H20.4138H20.3536H20.3434C20.3196 43.8626 20.2957 43.8626 20.2719 43.8638H20.2423L20.2035 43.8699L20.1565 43.8811L20.1361 43.8862L20.0932 43.9015L20.0708 43.9097L20.0361 43.926L20.0075 43.9403L19.982 43.9557L19.9472 43.9761L19.9299 43.9893L19.8921 44.0179L19.8788 44.0302C19.8666 44.0414 19.8533 44.0526 19.8411 44.0639L19.8176 44.0894L19.7951 44.1149C19.7799 44.1333 19.7656 44.1523 19.7522 44.1721L17.5062 47.5412L15.2601 44.1721C15.2467 44.1523 15.2324 44.1333 15.2172 44.1149L15.2019 44.0986C15.1917 44.0874 15.1815 44.0751 15.1702 44.0639C15.159 44.0526 15.1478 44.0435 15.1365 44.0332L15.1192 44.0179L15.0845 43.9924L15.063 43.9771L15.0324 43.9587L15.0028 43.9414L14.9793 43.9301L14.9385 43.9107L14.9221 43.9046L14.8731 43.8873H14.8629L14.8058 43.873C14.7798 43.8681 14.7535 43.8647 14.7271 43.8627H14.67H14.6516H14.5995H14.572L14.5311 43.8689L14.4974 43.877L14.4648 43.8852L14.426 43.8985L14.4004 43.9077L14.3555 43.9291L14.3382 43.9373C14.3198 43.9475 14.3024 43.9577 14.2851 43.9689H14.2779C14.2582 43.9823 14.2391 43.9966 14.2208 44.0118L14.2024 44.0281L14.1697 44.0577C14.1585 44.069 14.1483 44.0812 14.1381 44.0925L14.1238 44.1078C14.1146 44.119 14.1054 44.1313 14.0972 44.1435L14.0829 44.1629C14.0758 44.1731 14.0697 44.1843 14.0635 44.1956L14.0472 44.2231C14.0472 44.2323 14.039 44.2415 14.0339 44.2497C14.0288 44.2579 14.0217 44.2732 14.0166 44.2864C14.0115 44.2997 14.0166 44.3007 14.0094 44.3069C14.0023 44.313 13.9982 44.3365 13.9941 44.3508C13.99 44.3651 13.9941 44.362 13.9941 44.3681C13.9941 44.3742 13.9849 44.4008 13.9819 44.4171C13.9788 44.4335 13.9819 44.4365 13.9819 44.4467C13.9819 44.4569 13.9819 44.4723 13.9757 44.4845C13.9696 44.4968 13.9757 44.5315 13.9757 44.5549V52.894C13.9637 52.9944 13.973 53.0961 14.0032 53.1926C14.0333 53.289 14.0836 53.378 14.1506 53.4535C14.2177 53.5291 14.3 53.5897 14.3922 53.6311C14.4843 53.6725 14.5842 53.694 14.6853 53.694C14.7863 53.694 14.8862 53.6725 14.9784 53.6311C15.0705 53.5897 15.1529 53.5291 15.2199 53.4535C15.287 53.378 15.3372 53.289 15.3674 53.1926C15.3975 53.0961 15.4069 52.9944 15.3948 52.894V46.9103L16.9334 49.2186C16.999 49.3149 17.087 49.3936 17.19 49.448C17.2929 49.5025 17.4076 49.5309 17.524 49.5309C17.6405 49.5309 17.7551 49.5025 17.8581 49.448C17.961 49.3936 18.0491 49.3149 18.1146 49.2186L19.6348 46.9103V52.894C19.6228 52.9944 19.6321 53.0961 19.6623 53.1926C19.6924 53.289 19.7427 53.378 19.8098 53.4535C19.8768 53.5291 19.9591 53.5897 20.0513 53.6311C20.1434 53.6725 20.2433 53.694 20.3444 53.694C20.4454 53.694 20.5453 53.6725 20.6375 53.6311C20.7297 53.5897 20.812 53.5291 20.879 53.4535C20.9461 53.378 20.9963 53.289 21.0265 53.1926C21.0566 53.0961 21.066 52.9944 21.0539 52.894V44.5652C21.0539 44.5417 21.0539 44.5182 21.0539 44.4947H21.0468ZM28.999 45.2768C29.0993 45.2888 29.201 45.2795 29.2975 45.2493C29.3939 45.2192 29.4829 45.1689 29.5585 45.1018C29.6341 45.0348 29.6946 44.9525 29.736 44.8603C29.7775 44.7681 29.7989 44.6682 29.7989 44.5672C29.7989 44.4662 29.7775 44.3663 29.736 44.2741C29.6946 44.1819 29.6341 44.0996 29.5585 44.0326C29.4829 43.9655 29.3939 43.9152 29.2975 43.8851C29.201 43.8549 29.0993 43.8456 28.999 43.8576H23.3215C23.1479 43.8785 22.9881 43.9622 22.8721 44.093C22.7561 44.2237 22.6921 44.3924 22.6921 44.5672C22.6921 44.742 22.7561 44.9107 22.8721 45.0414C22.9881 45.1722 23.1479 45.2559 23.3215 45.2768H25.4542V52.1845H23.3215C23.2211 52.1724 23.1194 52.1818 23.023 52.2119C22.9265 52.2421 22.8376 52.2923 22.762 52.3594C22.6864 52.4265 22.6259 52.5088 22.5844 52.6009C22.543 52.6931 22.5215 52.793 22.5215 52.894C22.5215 52.9951 22.543 53.095 22.5844 53.1871C22.6259 53.2793 22.6864 53.3616 22.762 53.4287C22.8376 53.4957 22.9265 53.546 23.023 53.5761C23.1194 53.6063 23.2211 53.6157 23.3215 53.6036H28.999C29.0993 53.6157 29.201 53.6063 29.2975 53.5761C29.3939 53.546 29.4829 53.4957 29.5585 53.4287C29.6341 53.3616 29.6946 53.2793 29.736 53.1871C29.7775 53.095 29.7989 52.9951 29.7989 52.894C29.7989 52.793 29.7775 52.6931 29.736 52.6009C29.6946 52.5088 29.6341 52.4265 29.5585 52.3594C29.4829 52.2923 29.3939 52.2421 29.2975 52.2119C29.201 52.1818 29.0993 52.1724 28.999 52.1845H26.8703V45.2757L28.999 45.2768ZM11.8236 45.2768C11.9971 45.2559 12.157 45.1722 12.2729 45.0414C12.3889 44.9107 12.453 44.742 12.453 44.5672C12.453 44.3924 12.3889 44.2237 12.2729 44.093C12.157 43.9622 11.9971 43.8785 11.8236 43.8576H7.56622C7.37668 43.8576 7.19491 43.9329 7.06088 44.067C6.92686 44.201 6.85156 44.3828 6.85156 44.5723V52.894C6.85156 52.9879 6.87005 53.0808 6.90596 53.1675C6.94188 53.2542 6.99452 53.333 7.06088 53.3994C7.12724 53.4657 7.20603 53.5184 7.29274 53.5543C7.37944 53.5902 7.47237 53.6087 7.56622 53.6087H11.8246C11.9249 53.6208 12.0267 53.6114 12.1231 53.5813C12.2195 53.5511 12.3085 53.5008 12.3841 53.4338C12.4597 53.3667 12.5202 53.2844 12.5616 53.1923C12.6031 53.1001 12.6245 53.0002 12.6245 52.8991C12.6245 52.7981 12.6031 52.6982 12.5616 52.606C12.5202 52.5139 12.4597 52.4316 12.3841 52.3645C12.3085 52.2975 12.2195 52.2472 12.1231 52.217C12.0267 52.1869 11.9249 52.1775 11.8246 52.1896H8.27578V49.4402H11.8246C11.9981 49.4193 12.158 49.3356 12.274 49.2049C12.3899 49.0741 12.454 48.9054 12.454 48.7306C12.454 48.5558 12.3899 48.3871 12.274 48.2564C12.158 48.1256 11.9981 48.0419 11.8246 48.0211H8.27578V45.2757L11.8236 45.2768Z" fill="white"/>
</g>
</g>
</g>
</g>
<defs>
<clipPath id="clip0_2_399">
<rect width="60" height="60" fill="white"/>
</clipPath>
<clipPath id="clip1_2_399">
<rect width="1920" height="1200" fill="white"/>
</clipPath>
<clipPath id="clip2_2_399">
<rect width="60" height="60" fill="white"/>
</clipPath>
<clipPath id="clip3_2_399">
<rect width="60" height="59.998" fill="white" transform="translate(0 0.000976562)"/>
</clipPath>
</defs>
</svg>
