<svg width="60" height="60" viewBox="0 0 60 60" fill="none" xmlns="http://www.w3.org/2000/svg">
<g clip-path="url(#clip0_2_436)">
<g clip-path="url(#clip1_2_436)">
<g clip-path="url(#clip2_2_436)">
<path d="M37.625 56.1337C32.6516 56.1339 27.8321 54.4095 23.9876 51.2546C20.143 48.0996 17.5114 43.7092 16.541 38.8315C15.5706 33.9537 16.3216 28.8904 18.6659 24.5042C21.0102 20.1181 24.8028 16.6805 29.3976 14.7771C33.9923 12.8738 39.1048 12.6225 43.8641 14.0661C48.6233 15.5097 52.7347 18.5588 55.4979 22.694C58.261 26.8291 59.5048 31.7944 59.0175 36.7438C58.5301 41.6932 56.3417 46.3205 52.825 49.8372C48.7938 53.8687 43.3261 56.1336 37.625 56.1337Z" fill="#4D9C78"/>
<path d="M37.6275 50.4115C33.9775 50.4116 30.4404 49.1461 27.6189 46.8307C24.7973 44.5152 22.8659 41.2931 22.1537 37.7132C21.4415 34.1334 21.9927 30.4174 23.7132 27.1983C25.4337 23.9793 28.2171 21.4563 31.5892 20.0595C34.9614 18.6626 38.7135 18.4782 42.2064 19.5376C45.6992 20.5971 48.7167 22.8349 50.7446 25.8697C52.7725 28.9045 53.6854 32.5486 53.3277 36.181C52.97 39.8134 51.3639 43.2094 48.783 45.7904C47.3181 47.2555 45.5789 48.4176 43.6649 49.2105C41.7508 50.0034 39.6993 50.4115 37.6275 50.4115Z" fill="white"/>
<path d="M13.2411 39.0428C13.2414 38.9272 13.2189 38.8127 13.1749 38.7058C13.1309 38.5989 13.0663 38.5017 12.9847 38.4198C12.9031 38.3379 12.8062 38.2728 12.6994 38.2285C12.5927 38.1841 12.4782 38.1612 12.3626 38.161H4.39487C4.16645 38.1681 3.94975 38.2637 3.79066 38.4278C3.63158 38.5919 3.54261 38.8114 3.54261 39.0399C3.54261 39.2684 3.63158 39.488 3.79066 39.652C3.94975 39.8161 4.16645 39.9118 4.39487 39.9188H12.3626C12.5951 39.9186 12.818 39.8263 12.9826 39.6621C13.1473 39.498 13.2402 39.2753 13.2411 39.0428ZM4.39487 29.3748H13.1945C13.3122 29.3784 13.4294 29.3583 13.5392 29.3158C13.649 29.2732 13.7491 29.2091 13.8336 29.1271C13.9182 29.0451 13.9854 28.947 14.0313 28.8386C14.0772 28.7302 14.1008 28.6136 14.1008 28.4959C14.1008 28.3781 14.0772 28.2616 14.0313 28.1531C13.9854 28.0447 13.9182 27.9466 13.8336 27.8646C13.7491 27.7827 13.649 27.7185 13.5392 27.676C13.4294 27.6334 13.3122 27.6134 13.1945 27.617H4.39487C4.27717 27.6134 4.15996 27.6334 4.05016 27.676C3.94037 27.7185 3.84023 27.7827 3.7557 27.8646C3.67117 27.9466 3.60397 28.0447 3.55807 28.1531C3.51218 28.2616 3.48853 28.3781 3.48853 28.4959C3.48853 28.6136 3.51218 28.7302 3.55807 28.8386C3.60397 28.947 3.67117 29.0451 3.7557 29.1271C3.84023 29.2091 3.94037 29.2732 4.05016 29.3158C4.15996 29.3583 4.27717 29.3784 4.39487 29.3748ZM13.2411 33.7696C13.2411 33.5364 13.1484 33.3127 12.9835 33.1478C12.8186 32.9829 12.595 32.8903 12.3618 32.8903H0.879352C0.650939 32.8973 0.434235 32.993 0.27515 33.157C0.116066 33.3211 0.0270996 33.5406 0.0270996 33.7691C0.0270996 33.9977 0.116066 34.2172 0.27515 34.3813C0.434235 34.5453 0.650939 34.641 0.879352 34.648H12.3593C12.4749 34.6484 12.5894 34.6259 12.6963 34.5819C12.8032 34.5379 12.9004 34.4733 12.9823 34.3917C13.0642 34.3101 13.1292 34.2131 13.1736 34.1064C13.218 33.9996 13.2409 33.8852 13.2411 33.7696ZM6.15595 24.1023H14.9422C15.1707 24.0953 15.3874 23.9996 15.5464 23.8356C15.7055 23.6715 15.7945 23.452 15.7945 23.2234C15.7945 22.9949 15.7055 22.7754 15.5464 22.6113C15.3874 22.4473 15.1707 22.3516 14.9422 22.3446H6.15595C5.92754 22.3516 5.71083 22.4473 5.55175 22.6113C5.39267 22.7754 5.3037 22.9949 5.3037 23.2234C5.3037 23.452 5.39267 23.6715 5.55175 23.8356C5.71083 23.9996 5.92754 24.0953 6.15595 24.1023ZM53.4507 18.8149C53.0919 18.4555 52.7228 18.1106 52.3435 17.78L53.6379 15.613L53.7868 15.702C54.0178 15.8411 54.2824 15.9147 54.5521 15.915C54.6763 15.915 54.8001 15.8996 54.9206 15.8692C55.1116 15.8216 55.2913 15.7366 55.4492 15.6191C55.6072 15.5016 55.7402 15.3539 55.8407 15.1846L57.1101 13.0583C57.211 12.8894 57.2776 12.7023 57.3062 12.5077C57.3348 12.3131 57.3247 12.1147 57.2766 11.924C57.2284 11.7332 57.1432 11.5538 57.0257 11.3961C56.9082 11.2383 56.7608 11.1052 56.5919 11.0044L51.7021 8.08451C51.5332 7.98361 51.3461 7.91698 51.1515 7.88843C50.9568 7.85987 50.7585 7.86994 50.5677 7.91807C50.377 7.9662 50.1976 8.05144 50.0398 8.16892C49.882 8.28641 49.749 8.43383 49.6482 8.60277L48.3787 10.729C48.2778 10.8979 48.2112 11.085 48.1826 11.2797C48.1541 11.4743 48.1642 11.6726 48.2123 11.8634C48.2604 12.0541 48.3457 12.2335 48.4631 12.3913C48.5806 12.5491 48.728 12.6822 48.897 12.783L49.0467 12.872L47.9162 14.7562C45.7444 13.6294 43.4009 12.8704 40.9808 12.5101V9.08026H41.7112C42.2719 9.07939 42.8095 8.85637 43.2061 8.46003C43.6028 8.0637 43.8262 7.52635 43.8275 6.96563V5.10638C43.8269 4.54509 43.6036 4.00697 43.2067 3.61008C42.8098 3.21318 42.2717 2.98992 41.7104 2.98926H33.5397C32.9784 2.98992 32.4403 3.21318 32.0434 3.61008C31.6465 4.00697 31.4232 4.54509 31.4226 5.10638V6.96563C31.4232 7.52693 31.6465 8.06504 32.0434 8.46194C32.4403 8.85883 32.9784 9.0821 33.5397 9.08276H34.2734V12.5109C31.8534 12.8712 29.5098 13.6302 27.338 14.757L26.2042 12.872L26.3531 12.783C26.522 12.6822 26.6695 12.5491 26.7869 12.3913C26.9044 12.2335 26.9897 12.0541 27.0378 11.8634C27.0859 11.6726 27.096 11.4743 27.0674 11.2797C27.0389 11.085 26.9723 10.8979 26.8714 10.729L25.6052 8.60027C25.5045 8.43133 25.3714 8.28391 25.2136 8.16643C25.0558 8.04894 24.8764 7.9637 24.6857 7.91557C24.4949 7.86744 24.2966 7.85737 24.1019 7.88593C23.9073 7.91449 23.7202 7.98112 23.5513 8.08201L18.6616 11.0027C18.4926 11.1035 18.3452 11.2366 18.2277 11.3944C18.1102 11.5522 18.025 11.7316 17.9769 11.9223C17.9287 12.113 17.9187 12.3114 17.9472 12.506C17.9758 12.7007 18.0424 12.8878 18.1433 13.0566L19.4128 15.1829C19.5132 15.3522 19.6462 15.5 19.8041 15.6175C19.9621 15.735 20.1418 15.82 20.3328 15.8676C20.4533 15.8982 20.577 15.9139 20.7013 15.9141C20.971 15.9138 21.2355 15.8402 21.4667 15.7012L21.6156 15.6122L22.9108 17.78C22.532 18.1128 22.1629 18.4577 21.8036 18.8149C18.6736 21.9443 16.542 25.9316 15.6782 30.2725C14.8145 34.6134 15.2574 39.113 16.951 43.2022C18.6446 47.2914 21.5127 50.7865 25.1928 53.2455C28.8728 55.7046 33.1994 57.0171 37.6255 57.0171C42.0515 57.0171 46.3781 55.7046 50.0581 53.2455C53.7382 50.7865 56.6064 47.2914 58.3 43.2022C59.9935 39.113 60.4365 34.6134 59.5727 30.2725C58.7089 25.9316 56.5773 21.9443 53.4474 18.8149H53.4507ZM51.0208 9.72497L55.4638 12.3787L54.4606 14.0582L50.0167 11.4045L51.0208 9.72497ZM50.5516 13.7712L52.1247 14.7104L50.96 16.662C50.4676 16.2949 49.9623 15.9499 49.4444 15.6271L50.5516 13.7712ZM33.5397 7.32251C33.4444 7.32251 33.353 7.28465 33.2856 7.21725C33.2182 7.14986 33.1803 7.05845 33.1803 6.96314V5.10638C33.1803 5.05919 33.1896 5.01246 33.2077 4.96886C33.2257 4.92526 33.2522 4.88564 33.2856 4.85227C33.319 4.8189 33.3586 4.79243 33.4022 4.77437C33.4458 4.75631 33.4925 4.74701 33.5397 4.74701H41.7104C41.7576 4.74701 41.8043 4.75631 41.8479 4.77437C41.8915 4.79243 41.9311 4.8189 41.9645 4.85227C41.9979 4.88564 42.0243 4.92526 42.0424 4.96886C42.0605 5.01246 42.0698 5.05919 42.0698 5.10638V6.96563C42.0698 7.06094 42.0319 7.15235 41.9645 7.21974C41.8971 7.28714 41.8057 7.325 41.7104 7.325L33.5397 7.32251ZM39.2231 9.08026V12.3163C38.694 12.2791 38.1616 12.2603 37.6259 12.2597C37.0901 12.2591 36.5577 12.278 36.0287 12.3163V9.08026H39.2231ZM25.8082 15.6271C25.2908 15.9505 24.7853 16.2954 24.2917 16.662L23.1263 14.7104L24.6993 13.7712L25.8082 15.6271ZM20.7887 14.0582L19.7854 12.3787L24.2293 9.72497L25.2326 11.4045L20.7887 14.0582ZM52.2037 49.2142C48.8309 52.587 44.3929 54.6861 39.646 55.1536C34.899 55.6212 30.1368 54.4283 26.1708 51.7783C22.2047 49.1283 19.2802 45.1851 17.8956 40.6206C16.5109 36.0561 16.7518 31.1527 18.5772 26.7459C20.4025 22.339 23.6994 18.7014 27.9061 16.4529C32.1127 14.2044 36.9689 13.484 41.6472 14.4145C46.3254 15.3451 50.5363 17.869 53.5623 21.5561C56.5884 25.2433 58.2423 29.8656 58.2423 34.6355C58.2423 37.343 57.709 40.024 56.6729 42.5255C55.6368 45.0269 54.1182 47.2997 52.2037 49.2142ZM49.4019 22.8545C46.6774 20.13 43.0925 18.4344 39.2581 18.0566C35.4236 17.6788 31.5767 18.6422 28.3729 20.7826C25.1691 22.9231 22.8065 26.1081 21.6876 29.7952C20.5688 33.4822 20.763 37.4431 22.237 41.003C23.7111 44.563 26.3738 47.5017 29.7716 49.3185C33.1694 51.1354 37.092 51.718 40.8712 50.967C44.6504 50.216 48.0522 48.1779 50.4972 45.2C52.9422 42.2221 54.2791 38.4886 54.2801 34.6355C54.2806 32.4477 53.8501 30.2811 53.0131 28.2597C52.1761 26.2383 50.949 24.4016 49.4019 22.8545ZM48.7481 44.5465L47.8904 43.6889C47.7238 43.533 47.5032 43.448 47.275 43.4517C47.0469 43.4555 46.8292 43.5478 46.6679 43.7092C46.5066 43.8705 46.4143 44.0882 46.4105 44.3163C46.4067 44.5444 46.4917 44.7651 46.6476 44.9317L47.5036 45.7877C45.0108 48.0084 41.8393 49.3192 38.506 49.5062V48.3041C38.5096 48.1864 38.4896 48.0692 38.447 47.9594C38.4045 47.8496 38.3403 47.7495 38.2584 47.665C38.1764 47.5804 38.0783 47.5132 37.9699 47.4673C37.8614 47.4214 37.7449 47.3978 37.6271 47.3978C37.5094 47.3978 37.3928 47.4214 37.2844 47.4673C37.176 47.5132 37.0779 47.5804 36.9959 47.665C36.9139 47.7495 36.8498 47.8496 36.8072 47.9594C36.7647 48.0692 36.7446 48.1864 36.7482 48.3041V49.5062C33.4035 49.3176 30.2222 47.9975 27.7265 45.7627L28.5584 44.9309C28.7143 44.7643 28.7993 44.5436 28.7955 44.3155C28.7917 44.0874 28.6994 43.8697 28.5381 43.7083C28.3768 43.547 28.1591 43.4547 27.931 43.4509C27.7028 43.4471 27.4822 43.5322 27.3156 43.688L26.4837 44.5199C24.2576 42.0257 22.9435 38.8502 22.7561 35.5123H23.9581C24.0758 35.516 24.193 35.4959 24.3028 35.4534C24.4126 35.4108 24.5128 35.3467 24.5973 35.2647C24.6818 35.1827 24.749 35.0846 24.7949 34.9762C24.8408 34.8678 24.8645 34.7512 24.8645 34.6335C24.8645 34.5157 24.8408 34.3992 24.7949 34.2907C24.749 34.1823 24.6818 34.0842 24.5973 34.0022C24.5128 33.9203 24.4126 33.8561 24.3028 33.8136C24.193 33.771 24.0758 33.751 23.9581 33.7546H22.7544C22.9414 30.4213 24.2521 27.2497 26.4729 24.757L27.3148 25.5997C27.4813 25.7556 27.702 25.8406 27.9301 25.8368C28.1582 25.833 28.376 25.7407 28.5373 25.5794C28.6986 25.4181 28.7909 25.2004 28.7947 24.9722C28.7985 24.7441 28.7135 24.5235 28.5576 24.3569L27.7132 23.5125C30.2109 21.2733 33.3965 19.951 36.7458 19.7632V20.9661C36.7528 21.1945 36.8485 21.4112 37.0125 21.5703C37.1766 21.7294 37.3961 21.8184 37.6246 21.8184C37.8531 21.8184 38.0727 21.7294 38.2367 21.5703C38.4008 21.4112 38.4965 21.1945 38.5035 20.9661V19.7641C41.8414 19.9514 45.0169 21.2656 47.5111 23.4917L46.6451 24.3577C46.4893 24.5244 46.4044 24.7451 46.4084 24.9732C46.4123 25.2013 46.5048 25.419 46.6662 25.5802C46.8276 25.7414 47.0454 25.8336 47.2735 25.8372C47.5017 25.8409 47.7223 25.7557 47.8888 25.5997L48.7556 24.7329C50.9903 27.2286 52.3104 30.4098 52.499 33.7546H51.2945C51.066 33.7616 50.8493 33.8573 50.6903 34.0213C50.5312 34.1854 50.4422 34.4049 50.4422 34.6335C50.4422 34.862 50.5312 35.0815 50.6903 35.2456C50.8493 35.4096 51.066 35.5053 51.2945 35.5123H52.4965C52.3092 38.862 50.9872 42.0482 48.7481 44.5465ZM14.1203 43.4376H6.15595C5.92754 43.4447 5.71083 43.5403 5.55175 43.7044C5.39267 43.8685 5.3037 44.088 5.3037 44.3165C5.3037 44.545 5.39267 44.7646 5.55175 44.9286C5.71083 45.0927 5.92754 45.1884 6.15595 45.1954H14.1237C14.3521 45.1884 14.5688 45.0927 14.7279 44.9286C14.887 44.7646 14.9759 44.545 14.9759 44.3165C14.9759 44.088 14.887 43.8685 14.7279 43.7044C14.5688 43.5403 14.3521 43.4447 14.1237 43.4376H14.1203Z" fill="#333333"/>
<path d="M38.9218 34.6352C38.9218 34.5197 38.8991 34.4053 38.8549 34.2987C38.8107 34.192 38.7459 34.0951 38.6643 34.0134C38.5826 33.9318 38.4857 33.867 38.379 33.8228C38.2724 33.7786 38.158 33.7559 38.0425 33.7559H26.5601C26.3317 33.7629 26.115 33.8586 25.9559 34.0226C25.7969 34.1867 25.7079 34.4062 25.7079 34.6347C25.7079 34.8633 25.7969 35.0828 25.9559 35.2469C26.115 35.4109 26.3317 35.5066 26.5601 35.5136H38.04C38.1557 35.514 38.2702 35.4915 38.3771 35.4475C38.484 35.4035 38.5812 35.3389 38.6631 35.2573C38.745 35.1757 38.81 35.0787 38.8544 34.972C38.8988 34.8652 38.9217 34.7508 38.9218 34.6352Z" fill="#333333"/>
<path d="M37.8238 35.5155C38.057 35.5155 38.2807 35.4228 38.4456 35.2579C38.6105 35.093 38.7031 34.8694 38.7031 34.6362V26.8357C38.6961 26.6072 38.6004 26.3905 38.4364 26.2314C38.2723 26.0724 38.0528 25.9834 37.8242 25.9834C37.5957 25.9834 37.3762 26.0724 37.2121 26.2314C37.0481 26.3905 36.9524 26.6072 36.9454 26.8357V34.637C36.9456 34.8699 37.0382 35.0932 37.2029 35.2579C37.3676 35.4226 37.5909 35.5152 37.8238 35.5155Z" fill="#333333"/>
</g>
</g>
</g>
<defs>
<clipPath id="clip0_2_436">
<rect width="60" height="60" fill="white"/>
</clipPath>
<clipPath id="clip1_2_436">
<rect width="1920" height="1200" fill="white"/>
</clipPath>
<clipPath id="clip2_2_436">
<rect width="60" height="54.0221" fill="white" transform="translate(0 2.98926)"/>
</clipPath>
</defs>
</svg>
